<?xml version="1.0" encoding="UTF-8"?>
<!-- Generator: Adobe Illustrator 23.0.3, SVG Export Plug-In . SVG Version: 6.00 Build 0)  -->
<svg version="1.1" id="Layer_1" xmlns="http://www.w3.org/2000/svg" xmlns:xlink="http://www.w3.org/1999/xlink" x="0px" y="0px" viewBox="0 0 152 37.2" style="enable-background:new 0 0 152 37.2;" xml:space="preserve">
<style type="text/css">
	.st0{fill:#FFFFFF;}
	.st1{fill:#8025FF;}
	.st2{fill:#00ACFF;}
	.st3{fill:#00C786;}
</style>
<path class="st0" d="M20.4,29.3H4.1c-2.2,0-4.1-1.8-4.1-4.1v-13C0,10,1.8,8.1,4.1,8.1h16.3v4.2H4.2V25h16.1  C20.4,25,20.4,29.3,20.4,29.3z"/>
<path class="st0" d="M41,29.3H28.6c-2.2,0-4.1-1.8-4.1-4.1v-13c0-2.2,1.8-4.1,4.1-4.1H41c2.2,0,4.1,1.8,4.1,4.1v13  C45,27.5,43.2,29.3,41,29.3 M28.8,25h12V12.4h-12V25z"/>
<path class="st0" d="M86.4,37.2h-4.2v-25c0-2.2,1.8-4.1,4.1-4.1h12.5c2.2,0,4.1,1.8,4.1,4.1v13c0,2.2-1.8,4.1-4.1,4.1h-8.2V25h8  V12.4H86.4V37.2z"/>
<rect x="147.9" y="8.1" class="st0" width="4.1" height="21.1"/>
<rect x="147.9" class="st0" width="4.1" height="4.1"/>
<path class="st0" d="M78,29.2h-4.2V12.4H53.5v16.8h-4.2V12.2c0-2.2,1.8-4.1,4.1-4.1h20.6c2.2,0,4.1,1.8,4.1,4.1V29.2z"/>
<rect x="61.5" y="16.6" class="st0" width="4.2" height="12.6"/>
<path class="st0" d="M135.8,25V12.3h8.3V8.1h-8.3V0h-4.2v24.5c0,2.9,1.8,4.7,4.1,4.7h8.5V25H135.8z"/>
<rect x="107" y="25" class="st1" width="20.4" height="4.2"/>
<rect x="107" y="8.1" class="st2" width="20.4" height="4.2"/>
<rect x="107" y="16.6" class="st3" width="20.4" height="4.2"/>
</svg>