<?xml version="1.0" encoding="UTF-8"?>
<!-- Generator: Adobe Illustrator 23.0.3, SVG Export Plug-In . SVG Version: 6.00 Build 0)  -->
<svg version="1.1" id="Layer_1" xmlns="http://www.w3.org/2000/svg" xmlns:xlink="http://www.w3.org/1999/xlink" x="0px" y="0px" viewBox="0 0 151.99 37.24" style="enable-background:new 0 0 151.99 37.24;" xml:space="preserve">
<style type="text/css">
	.st0{fill:#FFFFFF;}
</style>
<path class="st0" d="M20.37,29.27H4.06C1.82,29.27,0,27.45,0,25.21v-13c0-2.24,1.82-4.06,4.06-4.06h16.31v4.22H4.22v12.67h16.15  V29.27z"/>
<path class="st0" d="M40.99,29.27H28.65c-2.24,0-4.06-1.82-4.06-4.06v-13c0-2.24,1.82-4.06,4.06-4.06h12.33  c2.24,0,4.06,1.82,4.06,4.06v13C45.05,27.45,43.22,29.27,40.99,29.27 M28.82,25.05h12.01V12.37H28.82V25.05z"/>
<path class="st0" d="M86.41,37.24h-4.22V12.21c0-2.24,1.82-4.06,4.06-4.06h12.46c2.24,0,4.06,1.82,4.06,4.06v13  c0,2.24-1.82,4.06-4.06,4.06h-8.16v-4.22h8V12.37H86.41V37.24z"/>
<rect x="147.93" y="8.07" class="st0" width="4.06" height="21.12"/>
<rect x="147.93" y="0" class="st0" width="4.06" height="4.06"/>
<path class="st0" d="M77.97,29.22h-4.22V12.37H53.49v16.77h-4.22V12.21c0-2.24,1.82-4.06,4.06-4.06h20.58  c2.24,0,4.06,1.82,4.06,4.06V29.22z"/>
<rect x="61.51" y="16.56" class="st0" width="4.22" height="12.63"/>
<path class="st0" d="M135.84,25.05V12.33h8.29V8.1h-8.29V0h-4.22v24.55c0,2.9,1.82,4.72,4.06,4.72h8.49v-4.22H135.84z"/>
<rect x="107.03" y="25.05" class="st0" width="20.37" height="4.22"/>
<rect x="107.03" y="8.07" class="st0" width="20.37" height="4.22"/>
<rect x="107.03" y="16.56" class="st0" width="20.37" height="4.22"/>
</svg>